<svg width="25" height="25" viewBox="0 0 25 25" fill="none" xmlns="http://www.w3.org/2000/svg">
<g id="63a645ff8605626d98030312_Facebook.svg">
<g id="Icons/facebook">
<g id="icons8-facebook">
<path id="Path" fill-rule="evenodd" clip-rule="evenodd" d="M19.55 3.81934H5.54999C4.44499 3.81934 3.54999 4.71434 3.54999 5.81934V19.8193C3.54999 20.9243 4.44499 21.8193 5.54999 21.8193H13.171V14.8583H10.828V12.1333H13.171V10.1283C13.171 7.80434 14.592 6.53734 16.666 6.53734C17.365 6.53534 18.063 6.57134 18.758 6.64234V9.07234H17.33C16.2 9.07234 15.98 9.60634 15.98 10.3943V12.1293H18.68L18.329 14.8543H15.964V21.8193H19.55C20.655 21.8193 21.55 20.9243 21.55 19.8193V5.81934C21.55 4.71434 20.655 3.81934 19.55 3.81934Z" fill="#151515"/>
</g>
</g>
</g>
</svg>
