<svg width="25" height="25" viewBox="0 0 25 25" fill="none" xmlns="http://www.w3.org/2000/svg">
<g id="63d70d7d9753ea3899678a74_icons8-health-calendar.svg" clip-path="url(#clip0_146_148)">
<path id="Vector" d="M5.83998 0.880127C5.31531 0.880127 4.87998 1.31546 4.87998 1.84013V2.80013H1.99998C1.79538 2.80013 1.58559 2.84657 1.39248 2.98294C1.19936 3.11931 1.03998 3.38438 1.03998 3.66075V22.9808C1.03998 23.4833 1.44642 23.9201 1.9606 23.9201H22.2003C22.7145 23.9201 23.12 23.4833 23.12 22.9808V3.66075C23.12 3.38438 22.9606 3.11931 22.7675 2.98294C22.5744 2.84657 22.3646 2.80013 22.16 2.80013H19.28V1.84013C19.28 1.31546 18.8446 0.880127 18.32 0.880127H17.36C16.8353 0.880127 16.4 1.31546 16.4 1.84013V2.80013H7.75998V1.84013C7.75998 1.31546 7.32465 0.880127 6.79998 0.880127H5.83998ZM5.83998 1.84013H6.79998V4.72013H5.83998V1.84013ZM17.36 1.84013H18.32V4.72013H17.36V1.84013ZM1.99998 3.76013H4.87998V4.72013C4.87998 5.2448 5.31531 5.68013 5.83998 5.68013H6.79998C7.32465 5.68013 7.75998 5.2448 7.75998 4.72013V3.76013H16.4V4.72013C16.4 5.2448 16.8353 5.68013 17.36 5.68013H18.32C18.8446 5.68013 19.28 5.2448 19.28 4.72013V3.76013H22.16V7.12013H1.99998V3.76013ZM1.99998 8.08013H22.16V22.9601H1.99998V8.08013ZM9.91998 10.9601C8.19198 10.9601 6.79998 12.3523 6.79998 14.0323C6.79998 16.6723 9.1996 18.2565 10.7356 19.2645C11.1676 19.5525 11.5044 19.7445 11.7444 19.9845L12.0322 20.2245L12.32 19.9845C12.56 19.7925 12.9438 19.5525 13.3278 19.2645C14.9598 18.2085 17.36 16.6723 17.36 14.0323C17.36 12.3523 15.968 10.9601 14.24 10.9601C13.424 10.9601 12.656 11.2965 12.08 11.8245C11.504 11.2965 10.736 10.9601 9.91998 10.9601ZM9.91998 11.9201C10.64 11.9201 11.2636 12.2561 11.6956 12.8801L12.08 13.4558L12.4644 12.8801C12.8484 12.3041 13.52 11.9201 14.24 11.9201C15.44 11.9201 16.4 12.8803 16.4 14.0323C16.4 16.1443 14.3836 17.4879 12.8956 18.4479C12.5596 18.6399 12.32 18.8318 12.08 18.9758C11.84 18.7838 11.6004 18.6399 11.2644 18.4479C9.77635 17.4879 7.75998 16.1443 7.75998 14.0323C7.75998 12.8803 8.71998 11.9201 9.91998 11.9201Z" fill="black"/>
</g>
<defs>
<clipPath id="clip0_146_148">
<rect width="24" height="24" fill="white" transform="translate(0.0799866 0.880127)"/>
</clipPath>
</defs>
</svg>
