<svg width="25" height="25" viewBox="0 0 25 25" fill="none" xmlns="http://www.w3.org/2000/svg">
<g id="63a645ff86056250a0030314_Instagram.svg">
<g id="Icons/instagram">
<g id="icons8-instagram">
<path id="Shape" fill-rule="evenodd" clip-rule="evenodd" d="M8.54999 3.81934C5.78899 3.81934 3.54999 6.05834 3.54999 8.81934V16.8193C3.54999 19.5803 5.78899 21.8193 8.54999 21.8193H16.55C19.311 21.8193 21.55 19.5803 21.55 16.8193V8.81934C21.55 6.05834 19.311 3.81934 16.55 3.81934H8.54999ZM18.55 5.81934C19.102 5.81934 19.55 6.26734 19.55 6.81934C19.55 7.37134 19.102 7.81934 18.55 7.81934C17.998 7.81934 17.55 7.37134 17.55 6.81934C17.55 6.26734 17.998 5.81934 18.55 5.81934ZM12.55 7.81934C15.311 7.81934 17.55 10.0583 17.55 12.8193C17.55 15.5803 15.311 17.8193 12.55 17.8193C9.78899 17.8193 7.54999 15.5803 7.54999 12.8193C7.54999 10.0583 9.78899 7.81934 12.55 7.81934ZM12.55 9.81934C10.8931 9.81934 9.54999 11.1625 9.54999 12.8193C9.54999 14.4762 10.8931 15.8193 12.55 15.8193C14.2068 15.8193 15.55 14.4762 15.55 12.8193C15.55 11.1625 14.2068 9.81934 12.55 9.81934Z" fill="#151515"/>
</g>
</g>
</g>
</svg>
