<svg width="20" height="20" viewBox="0 0 20 20" fill="none" xmlns="http://www.w3.org/2000/svg">
<g id="63a765516eb0c1b875da2828_icons8-linkedin%20(1).svg" clip-path="url(#clip0_146_279)">
<path id="Vector" d="M13.4028 0.451172C18.5222 0.451172 18.9181 0.847005 18.9181 5.96645V13.672C18.9181 18.7914 18.5222 19.1873 13.4028 19.1873H5.69722C0.577779 19.1873 0.181946 18.7914 0.181946 13.672V5.96645C0.181946 0.847005 0.577779 0.451172 5.69722 0.451172H13.4028ZM6.29097 14.9783V7.35187H3.91597V14.9783H6.29097ZM5.10347 6.25673C5.86875 6.25673 6.48889 5.63659 6.48889 4.87131C6.48889 4.10603 5.86875 3.48589 5.10347 3.48589C4.3382 3.48589 3.71806 4.10603 3.71806 4.87131C3.71806 5.63659 4.3382 6.25673 5.10347 6.25673ZM15.1708 14.9783V10.7956C15.1708 8.73728 14.7222 7.16714 12.334 7.16714C11.1861 7.16714 10.4076 7.80048 10.091 8.39423H10.0646V7.35187H7.78195V14.9783H10.1438V11.2046C10.1438 10.2151 10.3285 9.25187 11.5688 9.25187C12.7826 9.25187 12.7958 10.3866 12.7958 11.2706V14.9783H15.1708Z" fill="black"/>
</g>
<defs>
<clipPath id="clip0_146_279">
<rect width="19" height="19" fill="white" transform="translate(0.0499878 0.319336)"/>
</clipPath>
</defs>
</svg>
