<svg width="25" height="25" viewBox="0 0 25 25" fill="none" xmlns="http://www.w3.org/2000/svg">
<g id="63d70e7861a9185e0aa6298c_icons8-square-clock-144.svg">
<path id="Vector" d="M6.35999 3.88013C4.57402 3.88013 3.10999 5.34416 3.10999 7.13013V18.6301C3.10999 20.4161 4.57402 21.8801 6.35999 21.8801H17.86C19.646 21.8801 21.11 20.4161 21.11 18.6301V7.13013C21.11 5.34416 19.646 3.88013 17.86 3.88013H6.35999ZM6.35999 5.38013H17.86C18.835 5.38013 19.61 6.1551 19.61 7.13013V18.6301C19.61 19.6052 18.835 20.3801 17.86 20.3801H6.35999C5.38495 20.3801 4.60999 19.6052 4.60999 18.6301V7.13013C4.60999 6.1551 5.38495 5.38013 6.35999 5.38013ZM11.3483 6.86938C11.1495 6.87249 10.9601 6.95435 10.8217 7.09699C10.6833 7.23963 10.6071 7.43138 10.61 7.63013V13.6301C10.61 13.829 10.689 14.0198 10.8297 14.1604C10.9703 14.3011 11.1611 14.3801 11.36 14.3801H15.36C15.4594 14.3815 15.558 14.3632 15.6503 14.3261C15.7425 14.2891 15.8264 14.234 15.8972 14.1642C15.968 14.0945 16.0242 14.0113 16.0626 13.9196C16.1009 13.8279 16.1207 13.7295 16.1207 13.6301C16.1207 13.5307 16.1009 13.4323 16.0626 13.3406C16.0242 13.2489 15.968 13.1658 15.8972 13.096C15.8264 13.0262 15.7425 12.9712 15.6503 12.9341C15.558 12.8971 15.4594 12.8787 15.36 12.8801H12.11V7.63013C12.1114 7.52974 12.0927 7.43009 12.0549 7.33708C12.0171 7.24407 11.9611 7.15959 11.89 7.08864C11.819 7.0177 11.7344 6.96174 11.6414 6.92408C11.5483 6.88641 11.4486 6.86782 11.3483 6.86938Z" fill="black"/>
</g>
</svg>
