<svg width="25" height="25" viewBox="0 0 25 25" fill="none" xmlns="http://www.w3.org/2000/svg">
<g id="63a645ff86056264c1030313_Twitter.svg">
<g id="Icons/twitter">
<g id="icons8-twitter_squared">
<path id="Path" fill-rule="evenodd" clip-rule="evenodd" d="M22.55 4.81836C21.77 5.28136 20.205 5.91236 19.285 6.09436C19.258 6.10136 19.236 6.11036 19.21 6.11736C18.397 5.31536 17.283 4.81836 16.05 4.81836C13.565 4.81836 11.55 6.83336 11.55 9.31836C11.55 9.44936 11.539 9.69036 11.55 9.81836C8.19699 9.81836 5.64499 8.06236 3.81499 5.81836C3.61599 6.31836 3.52899 7.10836 3.52899 7.85036C3.52899 9.25136 4.62399 10.6274 6.32899 11.4804C6.01499 11.5614 5.66899 11.6194 5.30899 11.6194C4.72799 11.6194 4.11299 11.4664 3.54999 11.0024C3.54999 11.0194 3.54999 11.0354 3.54999 11.0534C3.54999 13.0114 5.62799 14.3444 7.47599 14.7154C7.10099 14.9364 6.34499 14.9584 5.97599 14.9584C5.71599 14.9584 4.79599 14.8394 4.54999 14.7934C5.06399 16.3984 6.91799 17.3004 8.68499 17.3324C7.30299 18.4164 6.34399 18.8184 3.51399 18.8184H2.54999C4.33799 19.9644 6.61499 20.8194 8.89699 20.8194C16.327 20.8194 20.55 15.1564 20.55 9.81836C20.55 9.73236 20.548 9.55236 20.545 9.37136C20.545 9.35336 20.55 9.33636 20.55 9.31836C20.55 9.29136 20.542 9.26536 20.542 9.23836C20.539 9.10236 20.536 8.97536 20.533 8.90936C21.323 8.33936 22.008 7.62836 22.55 6.81836C21.825 7.14036 21.047 7.35636 20.23 7.45436C21.064 6.95436 22.249 5.76236 22.55 4.81836Z" fill="#151515"/>
</g>
</g>
</g>
</svg>
